# xmcd CD database file
#
# Track frame offsets:
#	150
#	33117
#	52452
#	70045
#	84742
#	102665
#	117752
#	149295
#	166952
#	183675
#	203612
#	222020
#	240162
#	254635
#	269737
#	290122
#
# Disc length: 4131 seconds
#
# Revision: 1
# Processed by: cddbd v1.4PL0 Copyright (c) Steve Scherf et al.
# Submitted via: CDex 1.51
#
DISCID=fa102110
DTITLE=Various Artist - Blues - Live From The Slippery Noodle Inn Volume 3
DYEAR=1997
DGENRE=Blues
TTITLE0=Pat Boyack and The Prowlers - Stone Crazy
TTITLE1=Mojo Hand - Cleopatra
TTITLE2=Hot Rod - Blues Stew
TTITLE3=Stacy and Blues U-Can-Use - Groove In The Blues
TTITLE4=Kelly Richey - My Baby's Gone Crazy
TTITLE5=No Regrets - Workin' Man's Blues
TTITLE6=Pat Boyack and The Prowlers - It's Your Voodoo Workin'
TTITLE7=Jimmy Ley - Moss Point Mississippi
TTITLE8=Mojo Hand - Main Fault Line
TTITLE9=Mean Weenies - Don't Boss Me
TTITLE10=Hot Rod - Can't Have Your Cake
TTITLE11=Kelly Richey - Talks All Over Town
TTITLE12=No Regrets - Messin' With The Kid
TTITLE13=Mean Weenies - Rock That Boogie
TTITLE14=Jimmy Ley - The Race Is Run
TTITLE15=Stacy and Blues U-Can-Use - Crossroads
EXTD=YEAR: 1997
EXTT0=
EXTT1=
EXTT2=
EXTT3=
EXTT4=
EXTT5=
EXTT6=
EXTT7=
EXTT8=
EXTT9=
EXTT10=
EXTT11=
EXTT12=
EXTT13=
EXTT14=
EXTT15=
PLAYORDER=
